<svg width="415" height="109" viewBox="0 0 415 109" fill="none" xmlns="http://www.w3.org/2000/svg">
<path d="M21.1671 55.5047C22.0248 52.3039 25.3148 50.4044 28.5156 51.262L73.5918 63.3402C78.8018 64.7362 79.6673 71.7625 74.9518 74.3811L46.1871 90.3553L17.9707 107.279C13.3451 110.054 7.69296 105.791 9.08897 100.581L21.1671 55.5047Z" fill="url(#paint0_linear_731_4062)"/>
<path d="M56.8733 52.6488C56.0157 55.8496 52.7256 57.7491 49.5248 56.8914L4.44865 44.8133C-0.761342 43.4173 -1.62687 36.391 3.08857 33.7723L31.8533 17.7981L60.0697 0.874233C64.6953 -1.90012 70.3475 2.3626 68.9514 7.57258L56.8733 52.6488Z" fill="url(#paint1_linear_731_4062)"/>
<path d="M24.1466 44.3974L56.7297 53.128L52.3298 69.5488L19.7467 60.8182L24.1466 44.3974Z" fill="url(#paint2_linear_731_4062)"/>
<path d="M290.857 51.59C292.597 47.87 295.117 44.9 298.417 42.68C301.777 40.46 305.917 39.35 310.837 39.35C315.157 39.35 318.847 40.34 321.907 42.32C324.967 44.24 327.277 46.88 328.837 50.24C330.457 53.6 331.267 57.38 331.267 61.58C331.267 62.72 331.207 63.86 331.087 65C331.027 66.08 330.937 66.95 330.817 67.61H300.937C301.177 71.21 302.437 73.82 304.717 75.44C306.997 77.06 309.997 77.87 313.717 77.87C317.917 77.87 322.027 77.12 326.047 75.62C326.707 76.82 327.277 78.26 327.757 79.94C328.237 81.62 328.507 83.42 328.567 85.34C323.887 87.14 318.607 88.04 312.727 88.04C306.967 88.04 302.287 87.02 298.687 84.98C295.087 82.88 292.447 80.03 290.767 76.43C289.147 72.77 288.337 68.63 288.337 64.01C288.337 59.45 289.177 55.31 290.857 51.59ZM316.777 51.77C315.337 49.97 313.297 49.07 310.657 49.07C307.657 49.07 305.377 49.91 303.817 51.59C302.257 53.27 301.327 55.64 301.027 58.7H319.207C319.087 55.82 318.277 53.51 316.777 51.77Z" fill="#12F595"/>
<path d="M340.944 21.17C343.104 20.81 345.234 20.63 347.334 20.63C349.374 20.63 351.474 20.81 353.634 21.17V68.42C353.634 72.08 354.054 74.48 354.894 75.62C355.794 76.7 357.294 77.24 359.394 77.24C359.874 77.24 360.384 77.21 360.924 77.15C361.524 77.09 362.094 77 362.634 76.88C363.294 79.4 363.624 81.8 363.624 84.08C363.624 84.56 363.624 85.01 363.624 85.43C363.624 85.79 363.564 86.21 363.444 86.69C362.484 86.99 361.314 87.2 359.934 87.32C358.614 87.44 357.384 87.5 356.244 87.5C351.744 87.5 348.054 86.24 345.174 83.72C342.354 81.2 340.944 77.03 340.944 71.21V21.17Z" fill="#12F595"/>
<path d="M370.124 21.17C372.284 20.81 374.414 20.63 376.514 20.63C378.554 20.63 380.654 20.81 382.814 21.17V68.42C382.814 72.08 383.234 74.48 384.074 75.62C384.974 76.7 386.474 77.24 388.574 77.24C389.054 77.24 389.564 77.21 390.104 77.15C390.704 77.09 391.274 77 391.814 76.88C392.474 79.4 392.804 81.8 392.804 84.08C392.804 84.56 392.804 85.01 392.804 85.43C392.804 85.79 392.744 86.21 392.624 86.69C391.664 86.99 390.494 87.2 389.114 87.32C387.794 87.44 386.564 87.5 385.424 87.5C380.924 87.5 377.234 86.24 374.354 83.72C371.534 81.2 370.124 77.03 370.124 71.21V21.17Z" fill="#12F595"/>
<path d="M402.183 50.15H396.153C395.973 49.37 395.823 48.56 395.703 47.72C395.643 46.82 395.613 45.98 395.613 45.2C395.613 43.52 395.793 41.93 396.153 40.43H414.693V86.96C412.533 87.32 410.433 87.5 408.393 87.5C406.413 87.5 404.343 87.32 402.183 86.96V50.15ZM400.293 32.6C399.933 30.5 399.753 28.49 399.753 26.57C399.753 24.59 399.933 22.58 400.293 20.54C401.313 20.36 402.393 20.24 403.533 20.18C404.733 20.06 405.813 20 406.773 20C407.793 20 408.903 20.06 410.103 20.18C411.303 20.24 412.413 20.36 413.433 20.54C413.613 21.56 413.733 22.58 413.793 23.6C413.853 24.56 413.883 25.55 413.883 26.57C413.883 27.53 413.853 28.52 413.793 29.54C413.733 30.56 413.613 31.58 413.433 32.6C412.413 32.78 411.303 32.9 410.103 32.96C408.963 33.02 407.883 33.05 406.863 33.05C405.903 33.05 404.823 33.02 403.623 32.96C402.423 32.9 401.313 32.78 400.293 32.6Z" fill="#12F595"/>
<path d="M107.339 40.43C108.179 40.25 109.019 40.13 109.859 40.07C110.699 39.95 111.629 39.89 112.649 39.89C113.669 39.89 114.569 39.95 115.349 40.07C116.129 40.13 116.939 40.25 117.779 40.43C118.139 41.03 118.439 42.05 118.679 43.49C118.919 44.93 119.099 46.07 119.219 46.91C120.419 45.11 122.099 43.4 124.259 41.78C126.479 40.16 129.269 39.35 132.629 39.35C137.909 39.35 141.869 40.79 144.509 43.67C147.209 46.55 148.559 51.08 148.559 57.26V86.96C146.399 87.32 144.269 87.5 142.169 87.5C140.069 87.5 137.939 87.32 135.779 86.96V60.68C135.779 57.44 135.269 54.95 134.249 53.21C133.289 51.47 131.579 50.6 129.119 50.6C127.739 50.6 126.359 50.9 124.979 51.5C123.599 52.1 122.429 53.27 121.469 55.01C120.569 56.69 120.119 59.21 120.119 62.57V86.96C117.959 87.32 115.829 87.5 113.729 87.5C111.629 87.5 109.499 87.32 107.339 86.96V40.43Z" fill="#3B3B3B"/>
<path d="M200.031 85.16C198.111 85.82 195.561 86.45 192.381 87.05C189.261 87.71 185.991 88.04 182.571 88.04C179.511 88.04 176.571 87.77 173.751 87.23C170.991 86.75 168.531 85.76 166.371 84.26C164.211 82.7 162.501 80.42 161.241 77.42C159.981 74.42 159.351 70.43 159.351 65.45V40.43C161.511 40.07 163.641 39.89 165.741 39.89C167.841 39.89 169.971 40.07 172.131 40.43V65.09C172.131 69.95 172.911 73.25 174.471 74.99C176.091 76.67 178.521 77.51 181.761 77.51C184.041 77.51 185.901 77.3 187.341 76.88V40.43C189.501 40.07 191.601 39.89 193.641 39.89C195.741 39.89 197.871 40.07 200.031 40.43V85.16Z" fill="#3B3B3B"/>
<path d="M211.665 40.43C212.505 40.25 213.345 40.13 214.185 40.07C215.025 39.95 215.955 39.89 216.975 39.89C217.995 39.89 218.895 39.95 219.675 40.07C220.455 40.13 221.265 40.25 222.105 40.43C222.465 41.03 222.765 42.05 223.005 43.49C223.245 44.93 223.425 46.07 223.545 46.91C224.505 45.11 226.065 43.4 228.225 41.78C230.385 40.16 233.115 39.35 236.415 39.35C243.615 39.35 248.265 42.11 250.365 47.63C251.565 45.41 253.245 43.49 255.405 41.87C257.625 40.19 260.415 39.35 263.775 39.35C269.055 39.35 272.925 40.82 275.385 43.76C277.905 46.64 279.165 51.17 279.165 57.35V86.96C277.005 87.32 274.875 87.5 272.775 87.5C270.675 87.5 268.545 87.32 266.385 86.96V60.68C266.385 57.44 265.965 54.95 265.125 53.21C264.345 51.47 262.725 50.6 260.265 50.6C258.945 50.6 257.625 50.9 256.305 51.5C255.045 52.04 253.965 53.12 253.065 54.74C252.225 56.36 251.805 58.73 251.805 61.85V86.96C249.645 87.32 247.515 87.5 245.415 87.5C243.315 87.5 241.185 87.32 239.025 86.96V60.68C239.025 57.44 238.605 54.95 237.765 53.21C236.985 51.47 235.365 50.6 232.905 50.6C231.525 50.6 230.175 50.9 228.855 51.5C227.595 52.1 226.545 53.27 225.705 55.01C224.865 56.69 224.445 59.21 224.445 62.57V86.96C222.285 87.32 220.155 87.5 218.055 87.5C215.955 87.5 213.825 87.32 211.665 86.96V40.43Z" fill="#3B3B3B"/>
<defs>
<linearGradient id="paint0_linear_731_4062" x1="40.438" y1="48.7628" x2="36.0381" y2="65.1835" gradientUnits="userSpaceOnUse">
<stop stop-color="#12F596"/>
<stop offset="0.515625" stop-color="#14BC75"/>
<stop offset="1" stop-color="#12F596"/>
</linearGradient>
<linearGradient id="paint1_linear_731_4062" x1="40.438" y1="48.7628" x2="36.0381" y2="65.1835" gradientUnits="userSpaceOnUse">
<stop stop-color="#12F596"/>
<stop offset="0.515625" stop-color="#14BC75"/>
<stop offset="1" stop-color="#12F596"/>
</linearGradient>
<linearGradient id="paint2_linear_731_4062" x1="40.438" y1="48.7628" x2="36.0381" y2="65.1835" gradientUnits="userSpaceOnUse">
<stop stop-color="#12F596"/>
<stop offset="0.515625" stop-color="#14BC75"/>
<stop offset="1" stop-color="#12F596"/>
</linearGradient>
</defs>
</svg>
