<svg width="608" height="109" viewBox="0 0 608 109" fill="none" xmlns="http://www.w3.org/2000/svg">
<path d="M428.861 65.7941C429.581 66.9941 430.18 68.4041 430.66 70.0241C431.14 71.5841 431.38 73.4441 431.38 75.6041C428.98 76.5641 426.73 77.1641 424.63 77.4041C422.53 77.7041 420.341 77.8541 418.061 77.8541C414.161 77.8541 410.771 77.2541 407.891 76.0541C405.011 74.7941 402.61 73.0841 400.69 70.9241C398.83 68.7641 397.421 66.2141 396.461 63.2741C395.501 60.2741 395.021 57.0341 395.021 53.5541C395.021 50.1341 395.471 46.9541 396.371 44.0141C397.331 41.0741 398.74 38.4941 400.6 36.2741C402.52 34.0541 404.891 32.3141 407.711 31.0541C410.531 29.7941 413.801 29.1641 417.521 29.1641C418.841 29.1641 420.041 29.1941 421.121 29.2541C422.261 29.3141 423.341 29.4341 424.361 29.6141C425.381 29.7941 426.401 30.0341 427.421 30.3341C428.441 30.6341 429.581 31.0241 430.841 31.5041C430.841 32.8841 430.661 34.4441 430.301 36.1841C429.941 37.8641 429.371 39.4841 428.591 41.0441C426.791 40.4441 425.2 40.0541 423.82 39.8741C422.5 39.6341 420.971 39.5141 419.23 39.5141C415.51 39.5141 412.691 40.7441 410.771 43.2041C408.911 45.6041 407.98 49.0541 407.98 53.5541C407.98 58.4141 409 61.9541 411.04 64.1741C413.08 66.3941 415.84 67.5041 419.32 67.5041C420.22 67.5041 421.031 67.5041 421.751 67.5041C422.531 67.4441 423.281 67.3541 424.001 67.2341C424.721 67.1141 425.441 66.9341 426.161 66.6941C426.941 66.4541 427.841 66.1541 428.861 65.7941Z" fill="#147B50"/>
<path d="M440.345 30.2441C441.245 30.0641 442.085 29.9441 442.865 29.8841C443.705 29.7641 444.605 29.7041 445.565 29.7041C446.465 29.7041 447.335 29.7641 448.175 29.8841C449.075 30.0041 449.945 30.1541 450.785 30.3341C450.965 30.6341 451.115 31.0841 451.235 31.6841C451.415 32.2241 451.565 32.8241 451.685 33.4841C451.805 34.0841 451.895 34.7141 451.955 35.3741C452.075 35.9741 452.165 36.4841 452.225 36.9041C453.545 35.0441 455.165 33.3941 457.085 31.9541C459.005 30.4541 461.405 29.7041 464.285 29.7041C464.885 29.7041 465.575 29.7341 466.355 29.7941C467.135 29.8541 467.705 29.9441 468.065 30.0641C468.185 30.6641 468.275 31.3541 468.335 32.1341C468.395 32.9141 468.425 33.7241 468.425 34.5641C468.425 35.5841 468.365 36.6941 468.245 37.8941C468.185 39.0941 468.035 40.2341 467.795 41.3141C467.135 41.1941 466.385 41.1341 465.545 41.1341C464.765 41.1341 464.285 41.1341 464.105 41.1341C463.085 41.1341 461.945 41.2541 460.685 41.4941C459.425 41.6741 458.225 42.2141 457.085 43.1141C455.945 44.0141 454.985 45.3641 454.205 47.1641C453.485 48.9641 453.125 51.4841 453.125 54.7241V76.8641C452.045 77.0441 450.965 77.1641 449.885 77.2241C448.805 77.2841 447.755 77.3141 446.735 77.3141C445.715 77.3141 444.665 77.2841 443.585 77.2241C442.565 77.1641 441.485 77.0441 440.345 76.8641V30.2441Z" fill="#147B50"/>
<path d="M498.897 55.4441C498.177 55.3241 497.397 55.2341 496.557 55.1741C495.717 55.0541 494.967 54.9941 494.307 54.9941C491.367 54.9941 489.027 55.5341 487.287 56.6141C485.607 57.6341 484.767 59.3141 484.767 61.6541C484.767 63.2141 485.097 64.4141 485.757 65.2541C486.417 66.0941 487.197 66.7241 488.097 67.1441C489.057 67.5041 490.047 67.7441 491.067 67.8641C492.147 67.9241 493.077 67.9541 493.857 67.9541C494.757 67.9541 495.657 67.8941 496.557 67.7741C497.457 67.5941 498.237 67.4441 498.897 67.3241V55.4441ZM498.897 46.1741C498.897 44.7341 498.657 43.5641 498.177 42.6641C497.697 41.7641 497.037 41.0741 496.197 40.5941C495.357 40.0541 494.307 39.6941 493.047 39.5141C491.847 39.3341 490.497 39.2441 488.997 39.2441C485.757 39.2441 482.307 39.8741 478.647 41.1341C477.807 39.5741 477.177 38.1041 476.757 36.7241C476.337 35.3441 476.127 33.6941 476.127 31.7741C478.767 30.8741 481.407 30.2141 484.047 29.7941C486.687 29.3741 489.147 29.1641 491.427 29.1641C497.667 29.1641 502.527 30.6641 506.007 33.6641C509.547 36.6641 511.317 41.4641 511.317 48.0641V75.0641C509.217 75.7241 506.667 76.3541 503.667 76.9541C500.667 77.5541 497.277 77.8541 493.497 77.8541C490.437 77.8541 487.617 77.5841 485.037 77.0441C482.517 76.5041 480.327 75.6041 478.467 74.3441C476.667 73.0841 475.257 71.4641 474.237 69.4841C473.277 67.5041 472.797 65.0741 472.797 62.1941C472.797 59.3141 473.397 56.9141 474.597 54.9941C475.857 53.0141 477.447 51.4541 479.367 50.3141C481.347 49.1141 483.537 48.2741 485.937 47.7941C488.337 47.2541 490.737 46.9841 493.137 46.9841C494.877 46.9841 496.797 47.0741 498.897 47.2541V46.1741Z" fill="#147B50"/>
<path d="M553.929 65.7941C554.649 66.9941 555.249 68.4041 555.729 70.0241C556.209 71.5841 556.449 73.4441 556.449 75.6041C554.049 76.5641 551.799 77.1641 549.699 77.4041C547.599 77.7041 545.409 77.8541 543.129 77.8541C539.229 77.8541 535.839 77.2541 532.959 76.0541C530.079 74.7941 527.679 73.0841 525.759 70.9241C523.899 68.7641 522.489 66.2141 521.529 63.2741C520.569 60.2741 520.089 57.0341 520.089 53.5541C520.089 50.1341 520.539 46.9541 521.439 44.0141C522.399 41.0741 523.809 38.4941 525.669 36.2741C527.589 34.0541 529.959 32.3141 532.779 31.0541C535.599 29.7941 538.869 29.1641 542.589 29.1641C543.909 29.1641 545.109 29.1941 546.189 29.2541C547.329 29.3141 548.409 29.4341 549.429 29.6141C550.449 29.7941 551.469 30.0341 552.489 30.3341C553.509 30.6341 554.649 31.0241 555.909 31.5041C555.909 32.8841 555.729 34.4441 555.369 36.1841C555.009 37.8641 554.439 39.4841 553.659 41.0441C551.859 40.4441 550.269 40.0541 548.889 39.8741C547.569 39.6341 546.039 39.5141 544.299 39.5141C540.579 39.5141 537.759 40.7441 535.839 43.2041C533.979 45.6041 533.049 49.0541 533.049 53.5541C533.049 58.4141 534.069 61.9541 536.109 64.1741C538.149 66.3941 540.909 67.5041 544.389 67.5041C545.289 67.5041 546.099 67.5041 546.819 67.5041C547.599 67.4441 548.349 67.3541 549.069 67.2341C549.789 67.1141 550.509 66.9341 551.229 66.6941C552.009 66.4541 552.909 66.1541 553.929 65.7941Z" fill="#147B50"/>
<path d="M560.014 30.2441C561.394 29.9441 562.594 29.7941 563.614 29.7941C564.694 29.7341 565.684 29.7041 566.584 29.7041C567.784 29.7041 569.014 29.7341 570.274 29.7941C571.534 29.8541 572.674 30.0041 573.694 30.2441L583.414 70.8341L594.394 30.2441C596.374 29.8841 598.414 29.7041 600.514 29.7041C601.414 29.7041 602.374 29.7341 603.394 29.7941C604.414 29.7941 605.674 29.9441 607.174 30.2441L589.804 87.7541C589.084 90.0341 588.214 91.9241 587.194 93.4241C586.234 94.9241 585.124 96.0941 583.864 96.9341C582.604 97.7741 581.194 98.3441 579.634 98.6441C578.074 99.0041 576.394 99.1841 574.594 99.1841C572.914 99.1841 571.384 99.0641 570.004 98.8241C568.684 98.6441 567.364 98.3741 566.044 98.0141C565.984 97.7141 565.954 97.4441 565.954 97.2041C565.954 97.0241 565.954 96.8141 565.954 96.5741C565.954 95.1341 566.104 93.7541 566.404 92.4341C566.764 91.1741 567.184 89.9441 567.664 88.7441C568.204 88.9241 568.924 89.0741 569.824 89.1941C570.724 89.3741 571.624 89.4641 572.524 89.4641C573.244 89.4641 573.964 89.4041 574.684 89.2841C575.404 89.2241 576.094 88.9541 576.754 88.4741C577.474 88.0541 578.134 87.3641 578.734 86.4041C579.334 85.4441 579.874 84.0941 580.354 82.3541L581.884 76.7741C581.224 76.8341 580.474 76.8641 579.634 76.8641C578.854 76.9241 578.044 76.9541 577.204 76.9541C576.544 76.9541 575.914 76.9541 575.314 76.9541C574.714 76.9541 574.174 76.8941 573.694 76.7741L560.014 30.2441Z" fill="#147B50"/>
<path d="M108 29.59C110.16 29.23 112.29 29.05 114.39 29.05C116.49 29.05 118.62 29.23 120.78 29.59V54.25C120.78 56.71 120.96 58.75 121.32 60.37C121.74 61.93 122.34 63.19 123.12 64.15C123.96 65.05 124.98 65.71 126.18 66.13C127.38 66.49 128.79 66.67 130.41 66.67C132.63 66.67 134.49 66.46 135.99 66.04V29.59C138.15 29.23 140.25 29.05 142.29 29.05C144.39 29.05 146.52 29.23 148.68 29.59V74.32C146.76 74.98 144.21 75.61 141.03 76.21C137.91 76.87 134.64 77.2 131.22 77.2C128.16 77.2 125.22 76.96 122.4 76.48C119.58 76 117.09 74.98 114.93 73.42C112.83 71.86 111.15 69.58 109.89 66.58C108.63 63.58 108 59.59 108 54.61V29.59Z" fill="#3B3B3B"/>
<path d="M160.044 29.5C160.884 29.32 161.694 29.2 162.474 29.14C163.314 29.08 164.244 29.05 165.264 29.05C166.944 29.05 168.654 29.23 170.394 29.59C170.574 29.89 170.724 30.34 170.844 30.94C171.024 31.48 171.174 32.08 171.294 32.74C171.474 33.4 171.594 34.06 171.654 34.72C171.774 35.32 171.864 35.83 171.924 36.25C172.464 35.29 173.124 34.36 173.904 33.46C174.684 32.5 175.614 31.66 176.694 30.94C177.834 30.22 179.094 29.65 180.474 29.23C181.854 28.75 183.384 28.51 185.064 28.51C187.644 28.51 190.044 28.99 192.264 29.95C194.544 30.91 196.524 32.38 198.204 34.36C199.884 36.28 201.174 38.71 202.074 41.65C203.034 44.59 203.514 48.07 203.514 52.09C203.514 55.99 202.944 59.5 201.804 62.62C200.664 65.68 199.014 68.29 196.854 70.45C194.694 72.61 192.054 74.29 188.934 75.49C185.814 76.63 182.274 77.2 178.314 77.2C177.294 77.2 176.274 77.14 175.254 77.02C174.294 76.96 173.484 76.87 172.824 76.75V97.45C171.684 97.63 170.574 97.75 169.494 97.81C168.474 97.87 167.454 97.9 166.434 97.9C165.414 97.9 164.364 97.87 163.284 97.81C162.264 97.75 161.184 97.63 160.044 97.45V29.5ZM172.824 66.22C174.444 66.7 176.304 66.94 178.404 66.94C182.124 66.94 184.974 65.74 186.954 63.34C188.934 60.94 189.924 57.31 189.924 52.45C189.924 50.59 189.774 48.88 189.474 47.32C189.174 45.7 188.664 44.32 187.944 43.18C187.224 42.04 186.294 41.14 185.154 40.48C184.074 39.82 182.724 39.49 181.104 39.49C179.604 39.49 178.314 39.79 177.234 40.39C176.214 40.93 175.374 41.71 174.714 42.73C174.054 43.69 173.574 44.83 173.274 46.15C172.974 47.47 172.824 48.88 172.824 50.38V66.22Z" fill="#3B3B3B"/>
<path d="M205.88 29.68C207.32 29.38 208.64 29.2 209.84 29.14C211.1 29.08 212.18 29.05 213.08 29.05C214.28 29.05 215.48 29.08 216.68 29.14C217.88 29.2 218.99 29.35 220.01 29.59L230.18 64.24L240.17 29.59C241.19 29.41 242.27 29.29 243.41 29.23C244.55 29.11 245.69 29.05 246.83 29.05C247.73 29.05 248.75 29.08 249.89 29.14C251.09 29.2 252.44 29.38 253.94 29.68L236.3 76.12C235.16 76.3 233.96 76.42 232.7 76.48C231.44 76.54 230.39 76.57 229.55 76.57C228.65 76.57 227.63 76.54 226.49 76.48C225.35 76.42 224.27 76.27 223.25 76.03L205.88 29.68Z" fill="#3B3B3B"/>
<path d="M278.637 77.2C274.857 77.2 271.557 76.6 268.737 75.4C265.977 74.14 263.667 72.43 261.807 70.27C260.007 68.05 258.627 65.47 257.667 62.53C256.767 59.59 256.317 56.41 256.317 52.99C256.317 49.57 256.767 46.36 257.667 43.36C258.627 40.36 260.007 37.78 261.807 35.62C263.667 33.4 265.977 31.66 268.737 30.4C271.557 29.14 274.857 28.51 278.637 28.51C282.417 28.51 285.717 29.14 288.537 30.4C291.357 31.66 293.697 33.4 295.557 35.62C297.417 37.78 298.797 40.36 299.697 43.36C300.597 46.36 301.047 49.57 301.047 52.99C301.047 56.41 300.597 59.59 299.697 62.53C298.797 65.47 297.417 68.05 295.557 70.27C293.697 72.43 291.357 74.14 288.537 75.4C285.717 76.6 282.417 77.2 278.637 77.2ZM278.637 67.48C281.997 67.48 284.397 66.25 285.837 63.79C287.337 61.27 288.087 57.67 288.087 52.99C288.087 48.31 287.337 44.74 285.837 42.28C284.397 39.76 281.997 38.5 278.637 38.5C275.337 38.5 272.937 39.76 271.437 42.28C269.997 44.74 269.277 48.31 269.277 52.99C269.277 57.67 269.997 61.27 271.437 63.79C272.937 66.25 275.337 67.48 278.637 67.48Z" fill="#3B3B3B"/>
<path d="M312.394 39.31H306.544L306.094 37.51L322.924 16H324.994V29.59H335.884C336.064 30.49 336.184 31.3 336.244 32.02C336.304 32.74 336.334 33.49 336.334 34.27C336.334 35.11 336.304 35.92 336.244 36.7C336.184 37.48 336.064 38.35 335.884 39.31H324.994V57.58C324.994 59.44 325.144 60.94 325.444 62.08C325.744 63.22 326.164 64.12 326.704 64.78C327.304 65.44 328.024 65.89 328.864 66.13C329.704 66.37 330.694 66.49 331.834 66.49C332.734 66.49 333.604 66.43 334.444 66.31C335.344 66.13 336.124 65.98 336.784 65.86C337.204 67 337.504 68.2 337.684 69.46C337.864 70.66 337.954 71.74 337.954 72.7C337.954 73.36 337.924 73.93 337.864 74.41C337.864 74.83 337.834 75.25 337.774 75.67C335.014 76.33 332.164 76.66 329.224 76.66C323.764 76.66 319.594 75.4 316.714 72.88C313.834 70.3 312.394 66.13 312.394 60.37V39.31Z" fill="#3B3B3B"/>
<path d="M365.297 77.2C361.517 77.2 358.217 76.6 355.397 75.4C352.637 74.14 350.327 72.43 348.467 70.27C346.667 68.05 345.287 65.47 344.327 62.53C343.427 59.59 342.977 56.41 342.977 52.99C342.977 49.57 343.427 46.36 344.327 43.36C345.287 40.36 346.667 37.78 348.467 35.62C350.327 33.4 352.637 31.66 355.397 30.4C358.217 29.14 361.517 28.51 365.297 28.51C369.077 28.51 372.377 29.14 375.197 30.4C378.017 31.66 380.357 33.4 382.217 35.62C384.077 37.78 385.457 40.36 386.357 43.36C387.257 46.36 387.707 49.57 387.707 52.99C387.707 56.41 387.257 59.59 386.357 62.53C385.457 65.47 384.077 68.05 382.217 70.27C380.357 72.43 378.017 74.14 375.197 75.4C372.377 76.6 369.077 77.2 365.297 77.2ZM365.297 67.48C368.657 67.48 371.057 66.25 372.497 63.79C373.997 61.27 374.747 57.67 374.747 52.99C374.747 48.31 373.997 44.74 372.497 42.28C371.057 39.76 368.657 38.5 365.297 38.5C361.997 38.5 359.597 39.76 358.097 42.28C356.657 44.74 355.937 48.31 355.937 52.99C355.937 57.67 356.657 61.27 358.097 63.79C359.597 66.25 361.997 67.48 365.297 67.48Z" fill="#3B3B3B"/>
<path d="M21.1671 55.5047C22.0248 52.3039 25.3148 50.4044 28.5156 51.262L73.5918 63.3402C78.8018 64.7362 79.6673 71.7625 74.9518 74.3811L46.1871 90.3553L17.9707 107.279C13.3451 110.054 7.69296 105.791 9.08897 100.581L21.1671 55.5047Z" fill="url(#paint0_linear)"/>
<path d="M56.8733 52.6488C56.0157 55.8496 52.7256 57.7491 49.5248 56.8914L4.44865 44.8133C-0.761342 43.4173 -1.62687 36.391 3.08857 33.7723L31.8533 17.7981L60.0697 0.874233C64.6953 -1.90012 70.3475 2.3626 68.9514 7.57258L56.8733 52.6488Z" fill="url(#paint1_linear)"/>
<path d="M24.1466 44.3974L56.7297 53.128L52.3298 69.5488L19.7467 60.8182L24.1466 44.3974Z" fill="url(#paint2_linear)"/>
<defs>
<linearGradient id="paint0_linear" x1="40.438" y1="48.7628" x2="36.0381" y2="65.1835" gradientUnits="userSpaceOnUse">
<stop stop-color="#12F596"/>
<stop offset="0.515625" stop-color="#14BC75"/>
<stop offset="1" stop-color="#12F596"/>
</linearGradient>
<linearGradient id="paint1_linear" x1="40.438" y1="48.7628" x2="36.0381" y2="65.1835" gradientUnits="userSpaceOnUse">
<stop stop-color="#12F596"/>
<stop offset="0.515625" stop-color="#14BC75"/>
<stop offset="1" stop-color="#12F596"/>
</linearGradient>
<linearGradient id="paint2_linear" x1="40.438" y1="48.7628" x2="36.0381" y2="65.1835" gradientUnits="userSpaceOnUse">
<stop stop-color="#12F596"/>
<stop offset="0.515625" stop-color="#14BC75"/>
<stop offset="1" stop-color="#12F596"/>
</linearGradient>
</defs>
</svg>
