<svg width="201" height="36" viewBox="0 0 201 36" fill="none" xmlns="http://www.w3.org/2000/svg">
<path d="M141.414 21.8638C141.652 22.2595 141.85 22.7244 142.008 23.2586C142.166 23.773 142.245 24.3863 142.245 25.0986C141.454 25.4151 140.712 25.613 140.019 25.6921C139.327 25.791 138.605 25.8405 137.853 25.8405C136.567 25.8405 135.449 25.6426 134.5 25.2469C133.55 24.8315 132.758 24.2676 132.125 23.5554C131.512 22.8431 131.047 22.0023 130.731 21.0328C130.414 20.0436 130.256 18.9752 130.256 17.8277C130.256 16.7 130.404 15.6514 130.701 14.6819C131.017 13.7125 131.482 12.8617 132.096 12.1297C132.729 11.3977 133.51 10.8239 134.44 10.4084C135.37 9.99296 136.448 9.78522 137.675 9.78522C138.11 9.78522 138.506 9.79511 138.862 9.8149C139.238 9.83468 139.594 9.87425 139.93 9.9336C140.267 9.99296 140.603 10.0721 140.939 10.171C141.276 10.2699 141.652 10.3985 142.067 10.5568C142.067 11.0119 142.008 11.5263 141.889 12.1C141.77 12.654 141.582 13.1882 141.325 13.7026C140.732 13.5047 140.207 13.3761 139.752 13.3168C139.317 13.2376 138.813 13.1981 138.239 13.1981C137.012 13.1981 136.082 13.6037 135.449 14.4148C134.836 15.2062 134.529 16.3438 134.529 17.8277C134.529 19.4302 134.866 20.5975 135.538 21.3296C136.211 22.0616 137.121 22.4276 138.269 22.4276C138.565 22.4276 138.832 22.4276 139.07 22.4276C139.327 22.4078 139.574 22.3782 139.812 22.3386C140.049 22.299 140.287 22.2397 140.524 22.1605C140.781 22.0814 141.078 21.9825 141.414 21.8638Z" fill="#12F595"/>
<path d="M145.201 10.1413C145.498 10.082 145.775 10.0424 146.032 10.0226C146.309 9.98306 146.606 9.96328 146.923 9.96328C147.219 9.96328 147.506 9.98306 147.783 10.0226C148.08 10.0622 148.367 10.1117 148.644 10.171C148.703 10.2699 148.753 10.4183 148.792 10.6162C148.852 10.7942 148.901 10.9921 148.941 11.2097C148.98 11.4076 149.01 11.6153 149.03 11.8329C149.069 12.0308 149.099 12.1989 149.119 12.3374C149.554 11.7241 150.088 11.18 150.721 10.7052C151.354 10.2106 152.146 9.96328 153.095 9.96328C153.293 9.96328 153.521 9.97317 153.778 9.99296C154.035 10.0127 154.223 10.0424 154.342 10.082C154.381 10.2798 154.411 10.5074 154.431 10.7646C154.451 11.0218 154.461 11.2889 154.461 11.5658C154.461 11.9022 154.441 12.2682 154.401 12.6639C154.381 13.0596 154.332 13.4355 154.253 13.7916C154.035 13.752 153.788 13.7323 153.511 13.7323C153.254 13.7323 153.095 13.7323 153.036 13.7323C152.7 13.7323 152.324 13.7718 151.908 13.851C151.493 13.9103 151.097 14.0884 150.721 14.3852C150.345 14.6819 150.029 15.1271 149.772 15.7206C149.534 16.3142 149.415 17.1451 149.415 18.2135V25.514C149.059 25.5734 148.703 25.613 148.347 25.6327C147.991 25.6525 147.645 25.6624 147.308 25.6624C146.972 25.6624 146.626 25.6525 146.27 25.6327C145.933 25.613 145.577 25.5734 145.201 25.514V10.1413Z" fill="#12F595"/>
<path d="M164.509 18.4509C164.271 18.4113 164.014 18.3817 163.737 18.3619C163.46 18.3223 163.213 18.3025 162.995 18.3025C162.026 18.3025 161.254 18.4806 160.68 18.8367C160.126 19.173 159.849 19.727 159.849 20.4986C159.849 21.013 159.958 21.4087 160.176 21.6857C160.393 21.9627 160.651 22.1704 160.947 22.3089C161.264 22.4276 161.59 22.5068 161.927 22.5463C162.283 22.5661 162.589 22.576 162.847 22.576C163.143 22.576 163.44 22.5562 163.737 22.5167C164.034 22.4573 164.291 22.4078 164.509 22.3683V18.4509ZM164.509 15.3942C164.509 14.9193 164.429 14.5335 164.271 14.2368C164.113 13.94 163.895 13.7125 163.618 13.5542C163.341 13.3761 162.995 13.2574 162.58 13.1981C162.184 13.1387 161.739 13.109 161.244 13.109C160.176 13.109 159.038 13.3168 157.831 13.7323C157.554 13.2179 157.347 12.7331 157.208 12.2781C157.07 11.823 157 11.279 157 10.6459C157.871 10.3491 158.741 10.1314 159.612 9.99296C160.482 9.85446 161.294 9.78522 162.045 9.78522C164.103 9.78522 165.706 10.2798 166.853 11.2691C168.02 12.2583 168.604 13.8411 168.604 16.0174V24.9205C167.912 25.1381 167.071 25.3459 166.081 25.5437C165.092 25.7416 163.974 25.8405 162.728 25.8405C161.719 25.8405 160.789 25.7514 159.938 25.5734C159.107 25.3953 158.385 25.0986 157.772 24.6831C157.178 24.2676 156.713 23.7334 156.377 23.0805C156.061 22.4276 155.902 21.6263 155.902 20.6767C155.902 19.727 156.1 18.9356 156.496 18.3025C156.911 17.6496 157.436 17.1352 158.069 16.7593C158.722 16.3636 159.444 16.0866 160.235 15.9284C161.026 15.7503 161.818 15.6613 162.609 15.6613C163.183 15.6613 163.816 15.6909 164.509 15.7503V15.3942Z" fill="#12F595"/>
<path d="M182.655 21.8638C182.892 22.2595 183.09 22.7244 183.248 23.2586C183.407 23.773 183.486 24.3863 183.486 25.0986C182.694 25.4151 181.953 25.613 181.26 25.6921C180.568 25.791 179.845 25.8405 179.094 25.8405C177.808 25.8405 176.69 25.6426 175.74 25.2469C174.79 24.8315 173.999 24.2676 173.366 23.5554C172.753 22.8431 172.288 22.0023 171.971 21.0328C171.655 20.0436 171.496 18.9752 171.496 17.8277C171.496 16.7 171.645 15.6514 171.942 14.6819C172.258 13.7125 172.723 12.8617 173.336 12.1297C173.969 11.3977 174.751 10.8239 175.681 10.4084C176.611 9.99296 177.689 9.78522 178.916 9.78522C179.351 9.78522 179.747 9.79511 180.103 9.8149C180.479 9.83468 180.835 9.87425 181.171 9.9336C181.507 9.99296 181.844 10.0721 182.18 10.171C182.516 10.2699 182.892 10.3985 183.308 10.5568C183.308 11.0119 183.248 11.5263 183.13 12.1C183.011 12.654 182.823 13.1882 182.566 13.7026C181.972 13.5047 181.448 13.3761 180.993 13.3168C180.558 13.2376 180.053 13.1981 179.479 13.1981C178.253 13.1981 177.323 13.6037 176.69 14.4148C176.076 15.2062 175.77 16.3438 175.77 17.8277C175.77 19.4302 176.106 20.5975 176.779 21.3296C177.452 22.0616 178.362 22.4276 179.509 22.4276C179.806 22.4276 180.073 22.4276 180.31 22.4276C180.568 22.4078 180.815 22.3782 181.052 22.3386C181.29 22.299 181.527 22.2397 181.765 22.1605C182.022 22.0814 182.319 21.9825 182.655 21.8638Z" fill="#12F595"/>
<path d="M184.661 10.1413C185.116 10.0424 185.512 9.99296 185.848 9.99296C186.205 9.97317 186.531 9.96328 186.828 9.96328C187.223 9.96328 187.629 9.97317 188.045 9.99296C188.46 10.0127 188.836 10.0622 189.172 10.1413L192.377 23.5257L195.998 10.1413C196.651 10.0226 197.324 9.96328 198.016 9.96328C198.313 9.96328 198.629 9.97317 198.966 9.99296C199.302 9.99296 199.717 10.0424 200.212 10.1413L194.484 29.105C194.247 29.8568 193.96 30.48 193.624 30.9746C193.307 31.4692 192.941 31.855 192.526 32.132C192.11 32.409 191.645 32.5969 191.131 32.6959C190.617 32.8146 190.063 32.8739 189.469 32.8739C188.915 32.8739 188.411 32.8344 187.955 32.7552C187.52 32.6959 187.085 32.6068 186.65 32.4881C186.63 32.3892 186.62 32.3002 186.62 32.221C186.62 32.1617 186.62 32.0924 186.62 32.0133C186.62 31.5385 186.669 31.0834 186.768 30.6482C186.887 30.2327 187.026 29.8271 187.184 29.4314C187.362 29.4908 187.599 29.5402 187.896 29.5798C188.193 29.6391 188.49 29.6688 188.786 29.6688C189.024 29.6688 189.261 29.649 189.499 29.6095C189.736 29.5897 189.964 29.5006 190.181 29.3424C190.419 29.2039 190.636 28.9763 190.834 28.6598C191.032 28.3432 191.21 27.8981 191.368 27.3243L191.873 25.4844C191.655 25.5041 191.408 25.514 191.131 25.514C190.874 25.5338 190.607 25.5437 190.33 25.5437C190.112 25.5437 189.904 25.5437 189.706 25.5437C189.509 25.5437 189.331 25.5239 189.172 25.4844L184.661 10.1413Z" fill="#12F595"/>
<path d="M35.6124 9.92563C36.3247 9.80692 37.027 9.74756 37.7195 9.74756C38.412 9.74756 39.1143 9.80692 39.8266 9.92563V18.0571C39.8266 18.8683 39.8859 19.541 40.0046 20.0752C40.1431 20.5896 40.341 21.005 40.5982 21.3216C40.8751 21.6184 41.2115 21.836 41.6072 21.9745C42.0029 22.0932 42.4678 22.1526 43.002 22.1526C43.734 22.1526 44.3474 22.0833 44.842 21.9448V9.92563C45.5542 9.80692 46.2467 9.74756 46.9194 9.74756C47.6118 9.74756 48.3142 9.80692 49.0264 9.92563V24.6751C48.3933 24.8927 47.5525 25.1005 46.5039 25.2983C45.4751 25.5159 44.3968 25.6248 43.2691 25.6248C42.2601 25.6248 41.2906 25.5456 40.3607 25.3873C39.4309 25.2291 38.6098 24.8927 37.8976 24.3783C37.2051 23.8639 36.6511 23.1121 36.2356 22.1229C35.8202 21.1336 35.6124 19.818 35.6124 18.1758V9.92563Z" fill="#EBEBEB"/>
<path d="M52.7736 9.89595C53.0506 9.83659 53.3177 9.79703 53.5749 9.77724C53.8519 9.75746 54.1585 9.74756 54.4949 9.74756C55.0489 9.74756 55.6127 9.80692 56.1865 9.92563C56.2458 10.0245 56.2953 10.1729 56.3349 10.3708C56.3942 10.5488 56.4437 10.7467 56.4832 10.9643C56.5426 11.182 56.5822 11.3996 56.602 11.6172C56.6415 11.8151 56.6712 11.9832 56.691 12.1217C56.869 11.8052 57.0867 11.4985 57.3439 11.2017C57.6011 10.8852 57.9077 10.6082 58.2639 10.3708C58.6398 10.1334 59.0553 9.94541 59.5103 9.80692C59.9653 9.64864 60.4699 9.5695 61.0238 9.5695C61.8746 9.5695 62.666 9.72778 63.398 10.0443C64.1498 10.3609 64.8027 10.8456 65.3567 11.4985C65.9106 12.1316 66.336 12.9329 66.6328 13.9023C66.9493 14.8718 67.1076 16.0193 67.1076 17.3449C67.1076 18.6309 66.9197 19.7883 66.5438 20.8171C66.1678 21.8261 65.6238 22.6867 64.9115 23.399C64.1993 24.1112 63.3287 24.6652 62.2999 25.0609C61.2711 25.4368 60.1038 25.6248 58.7981 25.6248C58.4617 25.6248 58.1254 25.605 57.789 25.5654C57.4725 25.5456 57.2054 25.5159 56.9878 25.4764V32.3021C56.6118 32.3614 56.2458 32.401 55.8897 32.4208C55.5534 32.4406 55.217 32.4505 54.8807 32.4505C54.5443 32.4505 54.1981 32.4406 53.842 32.4208C53.5057 32.401 53.1495 32.3614 52.7736 32.3021V9.89595ZM56.9878 22.0042C57.5219 22.1624 58.1353 22.2416 58.8277 22.2416C60.0544 22.2416 60.9942 21.8459 61.647 21.0545C62.2999 20.2631 62.6264 19.0661 62.6264 17.4636C62.6264 16.8503 62.5769 16.2864 62.478 15.772C62.3791 15.2378 62.2109 14.7828 61.9735 14.4069C61.7361 14.0309 61.4294 13.7342 61.0535 13.5165C60.6974 13.2989 60.2522 13.1901 59.718 13.1901C59.2234 13.1901 58.7981 13.289 58.4419 13.4869C58.1056 13.6649 57.8286 13.9221 57.611 14.2585C57.3933 14.575 57.2351 14.9509 57.1361 15.3862C57.0372 15.8215 56.9878 16.2864 56.9878 16.781V22.0042Z" fill="#EBEBEB"/>
<path d="M67.8878 9.9553C68.3626 9.85638 68.7979 9.79703 69.1936 9.77724C69.6091 9.75746 69.9652 9.74756 70.262 9.74756C70.6576 9.74756 71.0533 9.75746 71.449 9.77724C71.8447 9.79703 72.2107 9.84649 72.5471 9.92563L75.9006 21.3513L79.1947 9.92563C79.5311 9.86627 79.8872 9.8267 80.2631 9.80692C80.639 9.76735 81.0149 9.74756 81.3908 9.74756C81.6876 9.74756 82.0239 9.75746 82.3999 9.77724C82.7955 9.79703 83.2407 9.85638 83.7353 9.9553L77.9186 25.2686C77.5427 25.328 77.147 25.3676 76.7315 25.3873C76.3161 25.4071 75.9698 25.417 75.6928 25.417C75.3961 25.417 75.0597 25.4071 74.6838 25.3873C74.3079 25.3676 73.9518 25.3181 73.6155 25.239L67.8878 9.9553Z" fill="#EBEBEB"/>
<path d="M91.8791 25.6248C90.6327 25.6248 89.5445 25.4269 88.6146 25.0312C87.7045 24.6157 86.9428 24.0519 86.3295 23.3396C85.736 22.6076 85.2809 21.7569 84.9644 20.7874C84.6676 19.818 84.5192 18.7694 84.5192 17.6416C84.5192 16.5139 84.6676 15.4554 84.9644 14.4662C85.2809 13.477 85.736 12.6262 86.3295 11.914C86.9428 11.182 87.7045 10.6082 88.6146 10.1927C89.5445 9.77724 90.6327 9.5695 91.8791 9.5695C93.1255 9.5695 94.2137 9.77724 95.1436 10.1927C96.0735 10.6082 96.8451 11.182 97.4584 11.914C98.0717 12.6262 98.5268 13.477 98.8235 14.4662C99.1203 15.4554 99.2687 16.5139 99.2687 17.6416C99.2687 18.7694 99.1203 19.818 98.8235 20.7874C98.5268 21.7569 98.0717 22.6076 97.4584 23.3396C96.8451 24.0519 96.0735 24.6157 95.1436 25.0312C94.2137 25.4269 93.1255 25.6248 91.8791 25.6248ZM91.8791 22.4196C92.987 22.4196 93.7784 22.0141 94.2533 21.2029C94.7479 20.3719 94.9952 19.1849 94.9952 17.6416C94.9952 16.0984 94.7479 14.9213 94.2533 14.1101C93.7784 13.2791 92.987 12.8636 91.8791 12.8636C90.7909 12.8636 89.9996 13.2791 89.5049 14.1101C89.0301 14.9213 88.7927 16.0984 88.7927 17.6416C88.7927 19.1849 89.0301 20.3719 89.5049 21.2029C89.9996 22.0141 90.7909 22.4196 91.8791 22.4196Z" fill="#EBEBEB"/>
<path d="M103.01 13.1307H101.081L100.933 12.5372L106.483 5.4444H107.165V9.92563H110.756C110.815 10.2224 110.855 10.4895 110.875 10.7269C110.894 10.9643 110.904 11.2116 110.904 11.4688C110.904 11.7458 110.894 12.0129 110.875 12.2701C110.855 12.5273 110.815 12.8142 110.756 13.1307H107.165V19.1552C107.165 19.7685 107.215 20.2631 107.313 20.639C107.412 21.0149 107.551 21.3117 107.729 21.5293C107.927 21.747 108.164 21.8954 108.441 21.9745C108.718 22.0536 109.045 22.0932 109.421 22.0932C109.717 22.0932 110.004 22.0734 110.281 22.0338C110.578 21.9745 110.835 21.925 111.053 21.8855C111.191 22.2614 111.29 22.6571 111.35 23.0725C111.409 23.4682 111.439 23.8244 111.439 24.1409C111.439 24.3585 111.429 24.5465 111.409 24.7048C111.409 24.8433 111.399 24.9818 111.379 25.1203C110.469 25.3379 109.529 25.4467 108.56 25.4467C106.759 25.4467 105.384 25.0312 104.435 24.2003C103.485 23.3495 103.01 21.9745 103.01 20.0752V13.1307Z" fill="#EBEBEB"/>
<path d="M120.455 25.6248C119.208 25.6248 118.12 25.4269 117.19 25.0312C116.28 24.6157 115.519 24.0519 114.905 23.3396C114.312 22.6076 113.857 21.7569 113.54 20.7874C113.243 19.818 113.095 18.7694 113.095 17.6416C113.095 16.5139 113.243 15.4554 113.54 14.4662C113.857 13.477 114.312 12.6262 114.905 11.914C115.519 11.182 116.28 10.6082 117.19 10.1927C118.12 9.77724 119.208 9.5695 120.455 9.5695C121.701 9.5695 122.789 9.77724 123.719 10.1927C124.649 10.6082 125.421 11.182 126.034 11.914C126.647 12.6262 127.102 13.477 127.399 14.4662C127.696 15.4554 127.844 16.5139 127.844 17.6416C127.844 18.7694 127.696 19.818 127.399 20.7874C127.102 21.7569 126.647 22.6076 126.034 23.3396C125.421 24.0519 124.649 24.6157 123.719 25.0312C122.789 25.4269 121.701 25.6248 120.455 25.6248ZM120.455 22.4196C121.563 22.4196 122.354 22.0141 122.829 21.2029C123.324 20.3719 123.571 19.1849 123.571 17.6416C123.571 16.0984 123.324 14.9213 122.829 14.1101C122.354 13.2791 121.563 12.8636 120.455 12.8636C119.367 12.8636 118.575 13.2791 118.081 14.1101C117.606 14.9213 117.368 16.0984 117.368 17.6416C117.368 19.1849 117.606 20.3719 118.081 21.2029C118.575 22.0141 119.367 22.4196 120.455 22.4196Z" fill="#EBEBEB"/>
<path d="M6.97974 18.4708C7.26254 17.4154 8.34741 16.7891 9.40285 17.0719L24.2665 21.0546C25.9844 21.5149 26.2698 23.8318 24.715 24.6953L15.2299 29.9627L5.92574 35.5432C4.40049 36.458 2.53671 35.0524 2.99704 33.3345L6.97974 18.4708Z" fill="url(#paint0_linear)"/>
<path d="M18.7537 17.5291C18.4709 18.5846 17.386 19.2109 16.3305 18.9281L1.46692 14.9454C-0.251048 14.4851 -0.536453 12.1682 1.01844 11.3047L10.5034 6.03732L19.8077 0.456761C21.3329 -0.458067 23.1967 0.947541 22.7364 2.66551L18.7537 17.5291Z" fill="url(#paint1_linear)"/>
<path d="M7.96221 14.8083L18.7063 17.6872L17.2555 23.1018L6.51136 20.2229L7.96221 14.8083Z" fill="url(#paint2_linear)"/>
<defs>
<linearGradient id="paint0_linear" x1="13.3342" y1="16.2477" x2="11.8834" y2="21.6624" gradientUnits="userSpaceOnUse">
<stop stop-color="#12F596"/>
<stop offset="0.515625" stop-color="#14BC75"/>
<stop offset="1" stop-color="#12F596"/>
</linearGradient>
<linearGradient id="paint1_linear" x1="13.3342" y1="16.2477" x2="11.8834" y2="21.6624" gradientUnits="userSpaceOnUse">
<stop stop-color="#12F596"/>
<stop offset="0.515625" stop-color="#14BC75"/>
<stop offset="1" stop-color="#12F596"/>
</linearGradient>
<linearGradient id="paint2_linear" x1="13.3342" y1="16.2477" x2="11.8834" y2="21.6624" gradientUnits="userSpaceOnUse">
<stop stop-color="#12F596"/>
<stop offset="0.515625" stop-color="#14BC75"/>
<stop offset="1" stop-color="#12F596"/>
</linearGradient>
</defs>
</svg>
